<mxfile host="app.diagrams.net" modified="2024-01-29T14:40:45.829Z" agent="Mozilla/5.0 (X11; Linux x86_64; rv:122.0) Gecko/20100101 Firefox/122.0" version="23.0.2" etag="pdMsFUhFz7sRbfJJh_cf" type="github">
  <diagram name="Page-1" id="tZBketVU4hSB7GiSMmFR">
    <mxGraphModel>
      <root>
        <mxCell id="0" />
        <mxCell id="1" parent="0" />
      </root>
    </mxGraphModel>
  </diagram>
</mxfile>
